<?xml version="1.0" encoding="UTF-8" standalone="no"?>
<!DOCTYPE svg PUBLIC "-//W3C//DTD SVG 1.1//EN" "http://www.w3.org/Graphics/SVG/1.1/DTD/svg11.dtd">
<svg width="100%" height="100%" viewBox="0 0 51 36" version="1.1" xmlns="http://www.w3.org/2000/svg" xmlns:xlink="http://www.w3.org/1999/xlink" xml:space="preserve" xmlns:serif="http://www.serif.com/" style="fill-rule:evenodd;clip-rule:evenodd;stroke-linejoin:round;stroke-miterlimit:10;">
    <g transform="matrix(0.897,0,0,0.897,2.57694,-5.26888)">
        <path d="M25,40.668C16.384,40.668 9.375,33.659 9.375,25.043C9.375,16.426 16.384,9.417 25,9.417C33.616,9.417 40.625,16.426 40.625,25.043C40.625,33.659 33.616,40.668 25,40.668Z" style="fill:rgb(152,204,253);fill-rule:nonzero;stroke:rgb(67,2,93);stroke-width:5.75px;"/>
    </g>
    <g transform="matrix(0.897,0,0,0.897,2.57694,-5.26888)">
        <path d="M25,10.044C16.729,10.044 10,16.772 10,25.044C10,33.315 16.729,40.044 25,40.044C33.271,40.044 40,33.315 40,25.044C40,16.772 33.271,10.044 25,10.044M25,8.794C33.975,8.794 41.25,16.069 41.25,25.044C41.25,34.019 33.975,41.294 25,41.294C16.025,41.294 8.75,34.019 8.75,25.044C8.75,16.069 16.025,8.794 25,8.794Z" style="fill:rgb(71,136,199);fill-rule:nonzero;stroke:rgb(67,2,93);stroke-width:5.75px;"/>
    </g>
    <g transform="matrix(0.897,0,0,0.897,2.57694,-5.26888)">
        <path d="M48.753,35.67C48.756,36.409 48.598,37.011 48.226,37.578C46.835,39.911 43.235,41.25 38.349,41.25C32.486,41.25 25.436,39.285 19.001,35.856C8.941,30.525 3.014,23.014 1.604,17.934C1.222,16.559 0.96,14.597 1.865,13.04C3.132,11.181 5.939,10.105 9.772,10.006C9.946,10.002 10.125,10 10.31,10C11.514,10 12.775,10.095 14.024,10.274C14.876,10.421 15.671,10.585 16.382,10.747C16.53,10.785 16.739,10.854 16.965,10.935C16.334,11.296 15.734,11.704 15.159,12.144C14.088,11.904 12.931,11.72 12.33,11.717C10.116,11.762 6.338,12.059 6.338,15.137C6.338,20.067 12.823,27.646 20.806,32.039C25.746,34.699 32.38,36.418 37.705,36.418C44.614,36.418 44.996,33.134 44.996,31.877C44.996,30.523 44.365,29.069 43.119,27.547C42.381,26.719 41.758,26.131 41.219,25.686C41.228,25.471 41.25,25.261 41.25,25.044C41.25,24.336 41.19,23.646 41.103,22.962C42.085,23.681 43.064,24.45 43.658,25.107C48.304,29.699 48.745,34.211 48.753,35.67Z" style="fill:rgb(223,240,254);fill-rule:nonzero;stroke:rgb(67,2,93);stroke-width:5.75px;"/>
    </g>
    <g transform="matrix(0.897,0,0,0.897,2.57694,-5.26888)">
        <path d="M41.084,27.237C41.154,26.728 41.199,26.211 41.22,25.686C41.759,26.131 42.383,26.719 43.12,27.548C44.366,29.069 44.998,30.523 44.998,31.877C44.998,33.133 44.614,36.418 37.706,36.418C32.381,36.418 25.748,34.699 20.808,32.039C12.823,27.645 6.337,20.068 6.337,15.138C6.337,12.06 10.115,11.763 12.33,11.716C12.931,11.72 14.088,11.903 15.159,12.143C14.735,12.466 14.318,12.799 13.928,13.163C13.293,13.048 12.706,12.968 12.355,12.966C8.129,13.053 7.586,14.173 7.586,15.138C7.586,19.584 13.916,26.821 21.399,30.938C26.171,33.508 32.571,35.168 37.705,35.168C41.714,35.168 43.746,34.061 43.746,31.878C43.746,30.821 43.21,29.631 42.185,28.379C41.774,27.918 41.415,27.556 41.084,27.238Z" style="fill:rgb(71,136,199);fill-rule:nonzero;stroke:rgb(67,2,93);stroke-width:5.75px;"/>
    </g>
    <g transform="matrix(0.897,0,0,0.897,2.57694,-5.26888)">
        <path d="M50.003,35.664C50.008,36.669 49.775,37.495 49.3,38.218C47.679,40.939 43.686,42.5 38.349,42.5C32.288,42.5 25.023,40.481 18.416,36.961C8.028,31.456 1.882,23.606 0.4,18.269C-0.045,16.665 -0.34,14.347 0.785,12.412L0.809,12.374L0.834,12.336C2.333,10.137 5.496,8.866 9.741,8.757C9.925,8.752 10.115,8.75 10.31,8.75C11.565,8.75 12.874,8.846 14.235,9.042C15.034,9.18 15.85,9.344 16.689,9.536C17.125,9.646 17.843,9.86 18.495,10.176C17.971,10.406 17.459,10.652 16.965,10.935C16.74,10.854 16.531,10.785 16.382,10.747C15.671,10.585 14.876,10.421 14.024,10.274C12.776,10.095 11.514,10 10.31,10C10.125,10 9.946,10.002 9.774,10.007C5.94,10.106 3.134,11.182 1.866,13.041C0.961,14.599 1.222,16.559 1.605,17.935C3.015,23.014 8.941,30.526 19.001,35.858C25.435,39.285 32.486,41.25 38.349,41.25C43.236,41.25 46.836,39.911 48.225,37.578C48.596,37.011 48.755,36.409 48.751,35.67C48.744,34.21 48.304,29.699 43.656,25.107C43.062,24.45 42.084,23.681 41.101,22.962C41.025,22.359 40.911,21.767 40.77,21.186C42.082,22.11 43.66,23.257 44.56,24.242C49.444,29.081 49.994,33.84 50.002,35.664Z" style="fill:rgb(71,136,199);fill-rule:nonzero;stroke:rgb(67,2,93);stroke-width:5.75px;"/>
    </g>
    <g transform="matrix(0.897,0,0,0.897,2.57694,-5.26888)">
        <path d="M23.037,32.441C22.729,32.302 22.424,32.159 22.126,32.013C22.425,32.159 22.729,32.302 23.037,32.441ZM22.126,32.013C21.776,31.842 21.433,31.666 21.097,31.485C20.617,31.22 20.138,30.941 19.664,30.65C20.14,30.942 20.621,31.222 21.104,31.487C21.437,31.667 21.778,31.842 22.126,32.013ZM12.457,24.906C14.538,27.035 17.037,29.035 19.664,30.65C17.035,29.036 14.538,27.04 12.457,24.906Z" style="fill:rgb(71,136,199);fill-rule:nonzero;stroke:rgb(67,2,93);stroke-width:5.75px;"/>
    </g>
    <g transform="matrix(0.897,0,0,0.897,2.57694,-5.26888)">
        <path d="M9.475,20.234C11.895,24.017 16.382,28.179 21.399,30.939C26.169,33.506 32.565,35.166 37.698,35.167C37.361,35.588 37.008,35.991 36.633,36.376C31.508,36.17 25.424,34.525 20.806,32.039C15.97,29.379 11.696,25.55 9.067,21.849C9.177,21.3 9.312,20.761 9.475,20.234Z" style="fill:rgb(71,136,199);fill-rule:nonzero;stroke:rgb(67,2,93);stroke-width:5.75px;"/>
    </g>
    <g transform="matrix(0.897,0,0,0.897,2.57694,-5.26888)">
        <path d="M25.833,25.755C25.464,25.577 25.1,25.394 24.748,25.205C25.102,25.394 25.464,25.576 25.833,25.755ZM24.748,25.205C24.715,25.188 24.683,25.17 24.65,25.153C24.36,24.993 24.07,24.828 23.782,24.658C24.072,24.828 24.363,24.994 24.655,25.155C24.686,25.172 24.717,25.188 24.748,25.205ZM13.985,16.287C16.476,19.401 20.026,22.444 23.782,24.658C20.016,22.441 16.478,19.414 13.985,16.288Z" style="fill:rgb(182,220,254);fill-rule:nonzero;stroke:rgb(67,2,93);stroke-width:5.75px;"/>
    </g>
    <g transform="matrix(0.897,0,0,0.897,2.57694,-5.26888)">
        <path d="M13.099,14.004C15.535,17.76 19.98,21.87 24.951,24.605C29.582,27.099 35.739,28.723 40.791,28.816C40.731,29.071 40.669,29.326 40.596,29.576C40.458,29.73 40.33,29.894 40.185,30.043C35.06,29.836 28.976,28.191 24.359,25.705C19.523,23.045 15.249,19.216 12.62,15.515C12.711,15.052 12.832,14.601 12.962,14.154C13.007,14.104 13.052,14.054 13.099,14.004Z" style="fill:rgb(71,136,199);fill-rule:nonzero;stroke:rgb(67,2,93);stroke-width:5.75px;"/>
    </g>
    <g transform="matrix(0.897,0,0,0.897,2.57694,-5.26888)">
        <path d="M27.647,18.369C24.229,16.372 20.958,13.684 18.492,10.837C18.495,10.836 18.496,10.836 18.499,10.835C20.985,13.692 24.264,16.39 27.647,18.369Z" style="fill:rgb(182,220,254);fill-rule:nonzero;stroke:rgb(67,2,93);stroke-width:5.75px;"/>
    </g>
    <g transform="matrix(0.897,0,0,0.897,2.57694,-5.26888)">
        <path d="M18.67,10.072C21.209,13.087 24.786,16.094 28.701,18.248C32.285,20.177 36.788,21.592 40.982,22.179C41.056,22.594 41.128,23.009 41.169,23.434C36.724,22.864 31.92,21.4 28.109,19.348C23.914,17.04 20.145,13.854 17.504,10.634C17.886,10.435 18.271,10.241 18.67,10.073Z" style="fill:rgb(71,136,199);fill-rule:nonzero;stroke:rgb(67,2,93);stroke-width:5.75px;"/>
    </g>
    <g transform="matrix(0.897,0,0,0.897,2.57694,-5.26888)">
        <path d="M28.312,40.316C25.021,39.366 21.791,38.051 18.71,36.41C18.296,36.191 17.886,35.968 17.482,35.738C17.886,35.966 18.295,36.19 18.709,36.409C21.775,38.044 25.061,39.375 28.322,40.314C28.32,40.314 28.316,40.315 28.312,40.316Z" style="fill:rgb(71,136,199);fill-rule:nonzero;stroke:rgb(67,2,93);stroke-width:5.75px;"/>
    </g>
    <g transform="matrix(0.897,0,0,0.897,2.57694,-5.26888)">
        <path d="M9.255,28.999C11.88,31.433 15.131,33.806 19.002,35.859C22.789,37.876 26.785,39.37 30.631,40.271C29.874,40.551 29.098,40.794 28.291,40.96C24.986,40.018 21.625,38.671 18.417,36.963C15.204,35.26 12.4,33.333 10.011,31.325C9.697,30.579 9.455,29.797 9.255,28.999Z" style="fill:rgb(71,136,199);fill-rule:nonzero;stroke:rgb(67,2,93);stroke-width:5.75px;"/>
    </g>
    <g transform="matrix(0.897,0,0,0.897,2.57694,-5.26888)">
        <path d="M25,40.668C16.384,40.668 9.375,33.659 9.375,25.043C9.375,16.426 16.384,9.417 25,9.417C33.616,9.417 40.625,16.426 40.625,25.043C40.625,33.659 33.616,40.668 25,40.668Z" style="fill:rgb(191,152,253);fill-rule:nonzero;"/>
    </g>
    <g transform="matrix(0.897,0,0,0.897,2.57694,-5.26888)">
        <path d="M25,10.044C33.271,10.044 40,16.772 40,25.044C40,33.315 33.271,40.044 25,40.044C16.729,40.044 10,33.315 10,25.044C10,16.772 16.729,10.044 25,10.044M25,8.794C16.025,8.794 8.75,16.069 8.75,25.044C8.75,34.019 16.025,41.294 25,41.294C33.975,41.294 41.25,34.019 41.25,25.044C41.25,16.069 33.975,8.794 25,8.794Z" style="fill:rgb(121,71,199);fill-rule:nonzero;"/>
    </g>
    <g transform="matrix(0.897,0,0,0.897,2.57694,-5.26888)">
        <path d="M43.658,25.107C43.064,24.45 42.085,23.681 41.103,22.962C41.19,23.646 41.25,24.336 41.25,25.044C41.25,25.261 41.228,25.471 41.219,25.686C41.757,26.131 42.381,26.719 43.119,27.548C44.365,29.069 44.996,30.523 44.996,31.878C44.996,33.134 44.614,36.418 37.705,36.418C32.38,36.418 25.746,34.699 20.806,32.039C12.822,27.646 6.337,20.068 6.337,15.138C6.337,12.059 10.116,11.763 12.33,11.718C12.931,11.72 14.087,11.904 15.159,12.144C15.734,11.704 16.334,11.296 16.965,10.935C16.739,10.854 16.53,10.785 16.382,10.748C15.671,10.585 14.876,10.421 14.024,10.274C12.775,10.095 11.514,10 10.31,10C10.125,10 9.946,10.003 9.772,10.006C5.939,10.105 3.132,11.181 1.865,13.04C0.96,14.598 1.222,16.559 1.604,17.934C3.014,23.014 8.941,30.525 19.001,35.856C25.436,39.285 32.486,41.25 38.349,41.25C43.235,41.25 46.835,39.911 48.226,37.578C48.598,37.011 48.756,36.409 48.753,35.67C48.745,34.211 48.304,29.699 43.657,25.108Z" style="fill:rgb(242,223,254);fill-rule:nonzero;"/>
    </g>
    <g transform="matrix(0.897,0,0,0.897,2.57694,-5.26888)">
        <path d="M42.185,28.379C43.21,29.631 43.746,30.821 43.746,31.877C43.746,34.061 41.714,35.168 37.705,35.168C32.571,35.168 26.171,33.508 21.399,30.938C13.916,26.821 7.586,19.584 7.586,15.137C7.586,14.173 8.129,13.052 12.355,12.966C12.706,12.968 13.292,13.047 13.927,13.163C14.317,12.799 14.735,12.466 15.159,12.143C14.087,11.903 12.931,11.72 12.33,11.716C10.115,11.762 6.337,12.06 6.337,15.137C6.337,20.068 12.822,27.645 20.807,32.039C25.747,34.699 32.381,36.418 37.706,36.418C44.614,36.418 44.997,33.133 44.997,31.877C44.997,30.523 44.366,29.069 43.12,27.547C42.383,26.719 41.759,26.131 41.22,25.686C41.199,26.211 41.154,26.727 41.084,27.237C41.415,27.556 41.774,27.917 42.185,28.379Z" style="fill:rgb(121,71,199);fill-rule:nonzero;"/>
    </g>
    <g transform="matrix(0.897,0,0,0.897,2.57694,-5.26888)">
        <path d="M44.56,24.242C43.66,23.257 42.083,22.11 40.77,21.186C40.911,21.767 41.025,22.359 41.101,22.962C42.084,23.681 43.063,24.45 43.656,25.107C48.304,29.699 48.744,34.21 48.751,35.67C48.755,36.409 48.596,37.011 48.225,37.578C46.836,39.911 43.236,41.25 38.349,41.25C32.486,41.25 25.435,39.285 19.001,35.858C8.941,30.526 3.015,23.014 1.605,17.935C1.223,16.559 0.961,14.599 1.866,13.041C3.134,11.182 5.94,10.106 9.774,10.007C9.946,10.002 10.125,10 10.31,10C11.514,10 12.776,10.095 14.024,10.274C14.876,10.421 15.671,10.585 16.383,10.747C16.531,10.785 16.74,10.854 16.965,10.935C17.459,10.652 17.971,10.406 18.495,10.176C17.843,9.86 17.125,9.646 16.689,9.536C15.85,9.344 15.034,9.18 14.235,9.042C12.874,8.846 11.565,8.75 10.31,8.75C10.115,8.75 9.925,8.752 9.741,8.757C5.496,8.866 2.333,10.137 0.834,12.336L0.809,12.374L0.785,12.412C-0.34,14.347 -0.045,16.665 0.4,18.269C1.883,23.606 8.028,31.456 18.416,36.961C25.023,40.481 32.288,42.5 38.349,42.5C43.686,42.5 47.679,40.939 49.3,38.217C49.775,37.495 50.008,36.669 50.003,35.664C49.994,33.84 49.444,29.081 44.56,24.242Z" style="fill:rgb(121,71,199);fill-rule:nonzero;"/>
    </g>
    <g transform="matrix(0.897,0,0,0.897,2.57694,-5.26888)">
        <path d="M23.037,32.441C22.369,32.14 21.722,31.821 21.104,31.487C17.952,29.755 14.915,27.426 12.457,24.906C14.914,27.419 17.952,29.754 21.097,31.485C21.719,31.82 22.367,32.139 23.037,32.441Z" style="fill:rgb(121,71,199);fill-rule:nonzero;"/>
    </g>
    <g transform="matrix(0.897,0,0,0.897,2.57694,-5.26888)">
        <path d="M9.475,20.234C9.312,20.761 9.177,21.3 9.067,21.849C11.696,25.55 15.97,29.379 20.806,32.039C25.424,34.525 31.508,36.17 36.633,36.376C37.008,35.991 37.361,35.588 37.698,35.168C32.565,35.166 26.169,33.506 21.399,30.939C16.382,28.179 11.895,24.017 9.475,20.234Z" style="fill:rgb(121,71,199);fill-rule:nonzero;"/>
    </g>
    <g transform="matrix(0.897,0,0,0.897,2.57694,-5.26888)">
        <path d="M25.833,25.755C25.431,25.561 25.036,25.361 24.655,25.155C20.568,22.906 16.67,19.655 13.985,16.287C16.668,19.64 20.577,22.911 24.65,25.152C25.035,25.36 25.43,25.56 25.833,25.755Z" style="fill:rgb(224,182,254);fill-rule:nonzero;"/>
    </g>
    <g transform="matrix(0.897,0,0,0.897,2.57694,-5.26888)">
        <path d="M13.099,14.004C13.052,14.054 13.007,14.104 12.962,14.154C12.832,14.601 12.711,15.052 12.62,15.515C15.249,19.216 19.523,23.045 24.359,25.705C28.976,28.191 35.06,29.836 40.185,30.043C40.33,29.894 40.458,29.73 40.596,29.576C40.669,29.326 40.731,29.071 40.791,28.816C35.739,28.722 29.582,27.099 24.951,24.605C19.98,21.87 15.535,17.76 13.099,14.004Z" style="fill:rgb(121,71,199);fill-rule:nonzero;"/>
    </g>
    <g transform="matrix(0.897,0,0,0.897,2.57694,-5.26888)">
        <path d="M27.647,18.369C24.229,16.372 20.958,13.684 18.492,10.837C18.495,10.836 18.496,10.836 18.499,10.835C20.985,13.692 24.264,16.39 27.647,18.369Z" style="fill:rgb(224,182,254);fill-rule:nonzero;"/>
    </g>
    <g transform="matrix(0.897,0,0,0.897,2.57694,-5.26888)">
        <path d="M18.67,10.072C18.271,10.241 17.886,10.435 17.504,10.634C20.145,13.854 23.914,17.04 28.109,19.348C31.92,21.4 36.724,22.864 41.169,23.434C41.128,23.009 41.056,22.594 40.983,22.179C36.788,21.593 32.285,20.178 28.701,18.248C24.786,16.094 21.209,13.088 18.67,10.073Z" style="fill:rgb(121,71,199);fill-rule:nonzero;"/>
    </g>
    <g transform="matrix(0.897,0,0,0.897,2.57694,-5.26888)">
        <path d="M28.312,40.316C25.021,39.366 21.791,38.051 18.71,36.41C18.296,36.191 17.886,35.968 17.482,35.738C17.886,35.966 18.295,36.19 18.709,36.409C21.775,38.044 25.061,39.375 28.322,40.314C28.32,40.314 28.316,40.315 28.312,40.316Z" style="fill:rgb(121,71,199);fill-rule:nonzero;"/>
    </g>
    <g transform="matrix(0.897,0,0,0.897,2.57694,-5.26888)">
        <path d="M9.255,28.999C9.455,29.798 9.697,30.579 10.011,31.325C12.4,33.333 15.204,35.26 18.417,36.963C21.625,38.671 24.986,40.018 28.291,40.96C29.098,40.794 29.874,40.551 30.631,40.271C26.785,39.37 22.789,37.876 19.002,35.859C15.131,33.806 11.88,31.433 9.255,28.999Z" style="fill:rgb(121,71,199);fill-rule:nonzero;"/>
    </g>
</svg>
