<?xml version="1.0" encoding="UTF-8" standalone="no"?>
<!DOCTYPE svg PUBLIC "-//W3C//DTD SVG 1.1//EN" "http://www.w3.org/Graphics/SVG/1.1/DTD/svg11.dtd">
<svg width="100%" height="100%" viewBox="0 0 51 36" version="1.1" xmlns="http://www.w3.org/2000/svg" xmlns:xlink="http://www.w3.org/1999/xlink" xml:space="preserve" xmlns:serif="http://www.serif.com/" style="fill-rule:evenodd;clip-rule:evenodd;stroke-linejoin:round;stroke-miterlimit:10;">
    <g transform="matrix(0.897,0,0,0.897,2.57694,-5.26888)">
        <path d="M25,10.044C16.729,10.044 10,16.772 10,25.044C10,33.315 16.729,40.044 25,40.044C33.271,40.044 40,33.315 40,25.044C40,16.772 33.271,10.044 25,10.044M25,8.794C33.975,8.794 41.25,16.069 41.25,25.044C41.25,34.019 33.975,41.294 25,41.294C16.025,41.294 8.75,34.019 8.75,25.044C8.75,16.069 16.025,8.794 25,8.794Z" style="fill:rgb(71,136,199);fill-rule:nonzero;stroke:rgb(67,2,93);stroke-width:5.75px;"/>
    </g>
    <g transform="matrix(0.897,0,0,0.897,2.57694,-5.26888)">
        <path d="M48.753,35.67C48.756,36.409 48.598,37.011 48.226,37.578C46.835,39.911 43.235,41.25 38.349,41.25C32.486,41.25 25.436,39.285 19.001,35.856C8.941,30.525 3.014,23.014 1.604,17.934C1.222,16.559 0.96,14.597 1.865,13.04C3.132,11.181 5.939,10.105 9.772,10.006C9.946,10.002 10.125,10 10.31,10C11.514,10 12.775,10.095 14.024,10.274C14.876,10.421 15.671,10.585 16.382,10.747C16.53,10.785 16.739,10.854 16.965,10.935C16.334,11.296 15.734,11.704 15.159,12.144C14.088,11.904 12.931,11.72 12.33,11.717C10.116,11.762 6.338,12.059 6.338,15.137C6.338,20.067 12.823,27.646 20.806,32.039C25.746,34.699 32.38,36.418 37.705,36.418C44.614,36.418 44.996,33.134 44.996,31.877C44.996,30.523 44.365,29.069 43.119,27.547C42.381,26.719 41.758,26.131 41.219,25.686C41.228,25.471 41.25,25.261 41.25,25.044C41.25,24.336 41.19,23.646 41.103,22.962C42.085,23.681 43.064,24.45 43.658,25.107C48.304,29.699 48.745,34.211 48.753,35.67Z" style="fill:rgb(223,240,254);fill-rule:nonzero;stroke:rgb(67,2,93);stroke-width:5.75px;"/>
    </g>
    <g transform="matrix(0.897,0,0,0.897,2.57694,-5.26888)">
        <path d="M50.003,35.664C50.008,36.669 49.775,37.495 49.3,38.218C47.679,40.939 43.686,42.5 38.349,42.5C32.288,42.5 25.023,40.481 18.416,36.961C8.028,31.456 1.882,23.606 0.4,18.269C-0.045,16.665 -0.34,14.347 0.785,12.412L0.809,12.374L0.834,12.336C2.333,10.137 5.496,8.866 9.741,8.757C9.925,8.752 10.115,8.75 10.31,8.75C11.565,8.75 12.874,8.846 14.235,9.042C15.034,9.18 15.85,9.344 16.689,9.536C17.125,9.646 17.843,9.86 18.495,10.176C17.971,10.406 17.459,10.652 16.965,10.935C16.74,10.854 16.531,10.785 16.382,10.747C15.671,10.585 14.876,10.421 14.024,10.274C12.776,10.095 11.514,10 10.31,10C10.125,10 9.946,10.002 9.774,10.007C5.94,10.106 3.134,11.182 1.866,13.041C0.961,14.599 1.222,16.559 1.605,17.935C3.015,23.014 8.941,30.526 19.001,35.858C25.435,39.285 32.486,41.25 38.349,41.25C43.236,41.25 46.836,39.911 48.225,37.578C48.596,37.011 48.755,36.409 48.751,35.67C48.744,34.21 48.304,29.699 43.656,25.107C43.062,24.45 42.084,23.681 41.101,22.962C41.025,22.359 40.911,21.767 40.77,21.186C42.082,22.11 43.66,23.257 44.56,24.242C49.444,29.081 49.994,33.84 50.002,35.664Z" style="fill:rgb(71,136,199);fill-rule:nonzero;stroke:rgb(67,2,93);stroke-width:5.75px;"/>
    </g>
    <g transform="matrix(0.897,0,0,0.897,2.57694,-5.26888)">
        <path d="M25,40.668C16.384,40.668 9.375,33.659 9.375,25.043C9.375,16.426 16.384,9.417 25,9.417C33.616,9.417 40.625,16.426 40.625,25.043C40.625,33.659 33.616,40.668 25,40.668Z" style="fill:rgb(191,152,253);fill-rule:nonzero;"/>
    </g>
    <g transform="matrix(0.897,0,0,0.897,2.57694,-5.26888)">
        <path d="M25,10.044C33.271,10.044 40,16.772 40,25.044C40,33.315 33.271,40.044 25,40.044C16.729,40.044 10,33.315 10,25.044C10,16.772 16.729,10.044 25,10.044M25,8.794C16.025,8.794 8.75,16.069 8.75,25.044C8.75,34.019 16.025,41.294 25,41.294C33.975,41.294 41.25,34.019 41.25,25.044C41.25,16.069 33.975,8.794 25,8.794Z" style="fill:rgb(121,71,199);fill-rule:nonzero;"/>
    </g>
    <g transform="matrix(0.897,0,0,0.897,2.57694,-5.26888)">
        <path d="M43.658,25.107C43.064,24.45 42.085,23.681 41.103,22.962C41.19,23.646 41.25,24.336 41.25,25.044C41.25,25.261 41.228,25.471 41.219,25.686C41.757,26.131 42.381,26.719 43.119,27.548C44.365,29.069 44.996,30.523 44.996,31.878C44.996,33.134 44.614,36.418 37.705,36.418C32.38,36.418 25.746,34.699 20.806,32.039C12.822,27.646 6.337,20.068 6.337,15.138C6.337,12.059 10.116,11.763 12.33,11.718C12.931,11.72 14.087,11.904 15.159,12.144C15.734,11.704 16.334,11.296 16.965,10.935C16.739,10.854 16.53,10.785 16.382,10.748C15.671,10.585 14.876,10.421 14.024,10.274C12.775,10.095 11.514,10 10.31,10C10.125,10 9.946,10.003 9.772,10.006C5.939,10.105 3.132,11.181 1.865,13.04C0.96,14.598 1.222,16.559 1.604,17.934C3.014,23.014 8.941,30.525 19.001,35.856C25.436,39.285 32.486,41.25 38.349,41.25C43.235,41.25 46.835,39.911 48.226,37.578C48.598,37.011 48.756,36.409 48.753,35.67C48.745,34.211 48.304,29.699 43.657,25.108Z" style="fill:rgb(242,223,254);fill-rule:nonzero;"/>
    </g>
    <g transform="matrix(0.897,0,0,0.897,2.57694,-5.26888)">
        <path d="M42.185,28.379C43.21,29.631 43.746,30.821 43.746,31.877C43.746,34.061 41.714,35.168 37.705,35.168C32.571,35.168 26.171,33.508 21.399,30.938C13.916,26.821 7.586,19.584 7.586,15.137C7.586,14.173 8.129,13.052 12.355,12.966C12.706,12.968 13.292,13.047 13.927,13.163C14.317,12.799 14.735,12.466 15.159,12.143C14.087,11.903 12.931,11.72 12.33,11.716C10.115,11.762 6.337,12.06 6.337,15.137C6.337,20.068 12.822,27.645 20.807,32.039C25.747,34.699 32.381,36.418 37.706,36.418C44.614,36.418 44.997,33.133 44.997,31.877C44.997,30.523 44.366,29.069 43.12,27.547C42.383,26.719 41.759,26.131 41.22,25.686C41.199,26.211 41.154,26.727 41.084,27.237C41.415,27.556 41.774,27.917 42.185,28.379Z" style="fill:rgb(121,71,199);fill-rule:nonzero;"/>
    </g>
    <g transform="matrix(0.897,0,0,0.897,2.57694,-5.26888)">
        <path d="M44.56,24.242C43.66,23.257 42.083,22.11 40.77,21.186C40.911,21.767 41.025,22.359 41.101,22.962C42.084,23.681 43.063,24.45 43.656,25.107C48.304,29.699 48.744,34.21 48.751,35.67C48.755,36.409 48.596,37.011 48.225,37.578C46.836,39.911 43.236,41.25 38.349,41.25C32.486,41.25 25.435,39.285 19.001,35.858C8.941,30.526 3.015,23.014 1.605,17.935C1.223,16.559 0.961,14.599 1.866,13.041C3.134,11.182 5.94,10.106 9.774,10.007C9.946,10.002 10.125,10 10.31,10C11.514,10 12.776,10.095 14.024,10.274C14.876,10.421 15.671,10.585 16.383,10.747C16.531,10.785 16.74,10.854 16.965,10.935C17.459,10.652 17.971,10.406 18.495,10.176C17.843,9.86 17.125,9.646 16.689,9.536C15.85,9.344 15.034,9.18 14.235,9.042C12.874,8.846 11.565,8.75 10.31,8.75C10.115,8.75 9.925,8.752 9.741,8.757C5.496,8.866 2.333,10.137 0.834,12.336L0.809,12.374L0.785,12.412C-0.34,14.347 -0.045,16.665 0.4,18.269C1.883,23.606 8.028,31.456 18.416,36.961C25.023,40.481 32.288,42.5 38.349,42.5C43.686,42.5 47.679,40.939 49.3,38.217C49.775,37.495 50.008,36.669 50.003,35.664C49.994,33.84 49.444,29.081 44.56,24.242Z" style="fill:rgb(121,71,199);fill-rule:nonzero;"/>
    </g>
    <g transform="matrix(0.897,0,0,0.897,2.57694,-5.26888)">
        <path d="M25.833,25.755C25.431,25.561 25.036,25.361 24.655,25.155C20.568,22.906 16.67,19.655 13.985,16.287C16.668,19.64 20.577,22.911 24.65,25.152C25.035,25.36 25.43,25.56 25.833,25.755Z" style="fill:rgb(224,182,254);fill-rule:nonzero;"/>
    </g>
    <g transform="matrix(0.897,0,0,0.897,2.57694,-5.26888)">
        <path d="M13.099,14.004C13.052,14.054 13.007,14.104 12.962,14.154C12.832,14.601 12.711,15.052 12.62,15.515C15.249,19.216 19.523,23.045 24.359,25.705C28.976,28.191 35.06,29.836 40.185,30.043C40.33,29.894 40.458,29.73 40.596,29.576C40.669,29.326 40.731,29.071 40.791,28.816C35.739,28.722 29.582,27.099 24.951,24.605C19.98,21.87 15.535,17.76 13.099,14.004Z" style="fill:rgb(121,71,199);fill-rule:nonzero;"/>
    </g>
    <g transform="matrix(0.897,0,0,0.897,2.57694,-5.26888)">
        <path d="M27.647,18.369C24.229,16.372 20.958,13.684 18.492,10.837C18.495,10.836 18.496,10.836 18.499,10.835C20.985,13.692 24.264,16.39 27.647,18.369Z" style="fill:rgb(224,182,254);fill-rule:nonzero;"/>
    </g>
    <g transform="matrix(0.897,0,0,0.897,2.57694,-5.26888)">
        <path d="M18.67,10.072C18.271,10.241 17.886,10.435 17.504,10.634C20.145,13.854 23.914,17.04 28.109,19.348C31.92,21.4 36.724,22.864 41.169,23.434C41.128,23.009 41.056,22.594 40.983,22.179C36.788,21.593 32.285,20.178 28.701,18.248C24.786,16.094 21.209,13.088 18.67,10.073Z" style="fill:rgb(121,71,199);fill-rule:nonzero;"/>
    </g>
    <g transform="matrix(1,0,0,1,2.44798,-6.29888)">
        <g transform="matrix(0.797249,0.60365,-0.60365,0.797249,18.9998,-0.965263)">
            <g transform="matrix(2.66667,0,0,2.66667,10.9368,27.8014)">
                <path d="M0.974,-0.414C0.974,-0.286 0.928,-0.179 0.836,-0.092C0.744,-0.005 0.635,0.039 0.509,0.039C0.383,0.039 0.275,-0.004 0.184,-0.09C0.09,-0.178 0.044,-0.286 0.044,-0.414C0.044,-0.541 0.09,-0.649 0.184,-0.738C0.275,-0.823 0.383,-0.866 0.509,-0.866C0.635,-0.866 0.743,-0.823 0.834,-0.738C0.927,-0.649 0.974,-0.541 0.974,-0.414ZM0.899,-0.414C0.899,-0.521 0.859,-0.612 0.78,-0.686C0.704,-0.758 0.614,-0.794 0.509,-0.794C0.404,-0.794 0.313,-0.758 0.238,-0.686C0.158,-0.612 0.119,-0.521 0.119,-0.414C0.119,-0.306 0.158,-0.215 0.238,-0.141C0.313,-0.07 0.404,-0.034 0.509,-0.034C0.614,-0.034 0.704,-0.07 0.78,-0.141C0.859,-0.215 0.899,-0.306 0.899,-0.414ZM0.761,-0.265C0.761,-0.214 0.732,-0.173 0.673,-0.14C0.622,-0.113 0.568,-0.099 0.51,-0.099C0.43,-0.099 0.367,-0.124 0.322,-0.173C0.276,-0.223 0.254,-0.289 0.254,-0.371C0.254,-0.461 0.277,-0.543 0.324,-0.618C0.376,-0.701 0.443,-0.743 0.523,-0.743C0.577,-0.743 0.619,-0.723 0.65,-0.684C0.678,-0.647 0.693,-0.599 0.693,-0.54C0.693,-0.513 0.685,-0.48 0.669,-0.441C0.65,-0.4 0.632,-0.379 0.615,-0.379C0.594,-0.379 0.576,-0.392 0.561,-0.418C0.57,-0.424 0.582,-0.435 0.598,-0.451C0.607,-0.462 0.611,-0.485 0.611,-0.52C0.611,-0.555 0.606,-0.586 0.596,-0.613C0.581,-0.65 0.558,-0.669 0.526,-0.669C0.503,-0.669 0.478,-0.657 0.451,-0.633C0.43,-0.614 0.413,-0.593 0.399,-0.569C0.365,-0.511 0.347,-0.44 0.348,-0.355C0.347,-0.231 0.403,-0.169 0.514,-0.169C0.555,-0.169 0.587,-0.177 0.611,-0.193C0.631,-0.206 0.653,-0.23 0.676,-0.265C0.691,-0.289 0.706,-0.301 0.721,-0.301C0.732,-0.301 0.741,-0.298 0.749,-0.291C0.757,-0.284 0.761,-0.275 0.761,-0.265Z" style="fill:rgb(90,0,126);fill-rule:nonzero;"/>
            </g>
        </g>
        <g transform="matrix(0.834639,0.550798,-0.550798,0.834639,18.6491,-2.57385)">
            <g transform="matrix(2.66667,0,0,2.66667,13.6111,29.772)">
                <path d="M0.456,-0.298C0.456,-0.213 0.441,-0.14 0.411,-0.081C0.374,-0.005 0.317,0.034 0.241,0.034C0.2,0.034 0.165,0.022 0.136,-0.001L0.136,0.074C0.136,0.154 0.145,0.217 0.164,0.263C0.172,0.281 0.176,0.293 0.176,0.298C0.176,0.326 0.16,0.34 0.126,0.34C0.101,0.34 0.083,0.335 0.07,0.326C0.061,0.32 0.052,0.3 0.043,0.264C0.035,0.232 0.031,0.208 0.031,0.191L0.031,-0.11C0.031,-0.137 0.033,-0.175 0.036,-0.223C0.04,-0.276 0.042,-0.313 0.043,-0.334C0.043,-0.355 0.043,-0.382 0.043,-0.416C0.042,-0.46 0.041,-0.488 0.041,-0.5C0.041,-0.571 0.065,-0.606 0.111,-0.606C0.123,-0.606 0.134,-0.602 0.144,-0.594C0.154,-0.586 0.159,-0.577 0.159,-0.566C0.159,-0.548 0.157,-0.515 0.153,-0.466C0.185,-0.512 0.224,-0.535 0.27,-0.535C0.332,-0.535 0.379,-0.51 0.413,-0.46C0.442,-0.417 0.456,-0.363 0.456,-0.298ZM0.345,-0.309C0.345,-0.399 0.326,-0.444 0.288,-0.444C0.271,-0.444 0.249,-0.428 0.223,-0.395C0.171,-0.333 0.142,-0.246 0.138,-0.136C0.147,-0.131 0.163,-0.114 0.186,-0.084C0.205,-0.061 0.223,-0.05 0.241,-0.05C0.31,-0.05 0.345,-0.136 0.345,-0.309Z" style="fill:rgb(90,0,126);fill-rule:nonzero;"/>
            </g>
        </g>
        <g transform="matrix(0.847134,0.531379,-0.531379,0.847134,18.4697,-3.17173)">
            <g transform="matrix(2.66667,0,0,2.66667,14.7475,30.5156)">
                <path d="M0.168,-0.034C0.168,-0.019 0.161,-0.006 0.149,0.004C0.137,0.015 0.123,0.02 0.108,0.02C0.055,0.02 0.029,-0.049 0.029,-0.186C0.029,-0.249 0.029,-0.343 0.031,-0.468C0.032,-0.593 0.033,-0.686 0.033,-0.749C0.033,-0.759 0.031,-0.773 0.029,-0.793C0.026,-0.812 0.025,-0.826 0.025,-0.835C0.053,-0.853 0.074,-0.863 0.09,-0.863C0.108,-0.863 0.126,-0.856 0.143,-0.844C0.159,-0.832 0.168,-0.817 0.168,-0.799C0.168,-0.79 0.165,-0.779 0.161,-0.766C0.155,-0.746 0.152,-0.735 0.151,-0.734C0.14,-0.682 0.135,-0.609 0.135,-0.514L0.135,-0.281C0.138,-0.176 0.146,-0.103 0.161,-0.061C0.165,-0.05 0.168,-0.04 0.168,-0.034Z" style="fill:rgb(90,0,126);fill-rule:nonzero;"/>
            </g>
        </g>
        <g transform="matrix(0.85835,0.513064,-0.513064,0.85835,17.9381,-3.4167)">
            <g transform="matrix(2.66667,0,0,2.66667,15.1568,30.7781)">
                <path d="M0.48,-0.213C0.48,-0.105 0.477,-0.029 0.47,0.015C0.466,0.041 0.448,0.054 0.418,0.054C0.371,0.054 0.35,0.03 0.355,-0.016C0.313,0.004 0.27,0.014 0.225,0.014C0.182,0.014 0.14,0.003 0.101,-0.019C0.055,-0.045 0.031,-0.078 0.031,-0.118C0.031,-0.157 0.058,-0.193 0.111,-0.228C0.16,-0.258 0.205,-0.274 0.248,-0.274L0.354,-0.274L0.354,-0.304C0.355,-0.391 0.329,-0.435 0.276,-0.435C0.21,-0.435 0.178,-0.404 0.178,-0.343C0.178,-0.322 0.166,-0.311 0.143,-0.311C0.128,-0.311 0.114,-0.318 0.098,-0.331C0.083,-0.344 0.075,-0.357 0.075,-0.371C0.075,-0.418 0.092,-0.456 0.125,-0.486C0.158,-0.516 0.198,-0.531 0.245,-0.531C0.402,-0.531 0.48,-0.425 0.48,-0.213ZM0.354,-0.168C0.354,-0.184 0.341,-0.193 0.316,-0.193C0.212,-0.193 0.16,-0.168 0.16,-0.119C0.16,-0.092 0.183,-0.079 0.229,-0.079C0.257,-0.079 0.284,-0.087 0.309,-0.103C0.339,-0.12 0.354,-0.142 0.354,-0.168Z" style="fill:rgb(90,0,126);fill-rule:nonzero;"/>
            </g>
        </g>
        <g transform="matrix(0.874767,0.484544,-0.484544,0.874767,17.3181,-3.99084)">
            <g transform="matrix(2.66667,0,0,2.66667,16.3796,31.5077)">
                <path d="M0.478,-0.009C0.465,0.01 0.45,0.02 0.431,0.02C0.417,0.02 0.394,0.012 0.361,-0.005L0.361,-0.02C0.361,-0.038 0.362,-0.065 0.363,-0.101C0.364,-0.137 0.365,-0.163 0.365,-0.18C0.365,-0.358 0.338,-0.448 0.285,-0.448C0.27,-0.448 0.253,-0.436 0.234,-0.413C0.175,-0.341 0.145,-0.255 0.145,-0.154C0.145,-0.14 0.148,-0.119 0.153,-0.091C0.159,-0.063 0.161,-0.042 0.161,-0.028C0.161,-0.016 0.156,-0.006 0.145,0.001C0.134,0.009 0.123,0.013 0.11,0.013C0.06,0.013 0.035,-0.019 0.035,-0.083L0.035,-0.344C0.035,-0.35 0.036,-0.36 0.038,-0.373C0.039,-0.386 0.04,-0.396 0.04,-0.403C0.04,-0.413 0.039,-0.427 0.036,-0.446C0.033,-0.465 0.031,-0.48 0.031,-0.489C0.031,-0.502 0.039,-0.515 0.054,-0.527C0.07,-0.539 0.084,-0.545 0.096,-0.545C0.115,-0.545 0.133,-0.535 0.153,-0.514L0.149,-0.464C0.18,-0.513 0.218,-0.538 0.263,-0.538C0.292,-0.538 0.323,-0.528 0.355,-0.508C0.388,-0.488 0.411,-0.465 0.426,-0.44C0.46,-0.377 0.478,-0.293 0.478,-0.19L0.478,-0.009Z" style="fill:rgb(90,0,126);fill-rule:nonzero;"/>
            </g>
        </g>
        <g transform="matrix(0.887991,0.459861,-0.459861,0.887991,16.7743,-4.49336)">
            <g transform="matrix(2.66667,0,0,2.66667,17.611,32.1873)">
                <path d="M0.435,-0.11C0.435,-0.068 0.407,-0.036 0.35,-0.013C0.306,0.006 0.26,0.015 0.211,0.015C0.083,0.015 0.019,-0.058 0.019,-0.204C0.019,-0.264 0.033,-0.33 0.063,-0.404C0.098,-0.494 0.142,-0.539 0.193,-0.539C0.238,-0.539 0.288,-0.518 0.341,-0.478C0.394,-0.437 0.42,-0.394 0.42,-0.35C0.42,-0.295 0.395,-0.251 0.346,-0.219C0.303,-0.19 0.251,-0.175 0.191,-0.175C0.18,-0.175 0.161,-0.182 0.135,-0.196C0.138,-0.117 0.162,-0.078 0.205,-0.078C0.242,-0.078 0.278,-0.088 0.313,-0.109C0.349,-0.13 0.371,-0.14 0.381,-0.14C0.417,-0.14 0.435,-0.13 0.435,-0.11ZM0.299,-0.346C0.299,-0.367 0.293,-0.387 0.281,-0.406C0.269,-0.424 0.253,-0.434 0.233,-0.434C0.205,-0.434 0.184,-0.422 0.169,-0.398C0.156,-0.377 0.15,-0.352 0.15,-0.324C0.15,-0.308 0.155,-0.295 0.166,-0.285C0.177,-0.275 0.191,-0.27 0.208,-0.27C0.268,-0.27 0.299,-0.295 0.299,-0.346Z" style="fill:rgb(90,0,126);fill-rule:nonzero;"/>
            </g>
        </g>
        <g transform="matrix(0.898151,0.439688,-0.439688,0.898151,16.2777,-4.85498)">
            <g transform="matrix(2.66667,0,0,2.66667,18.6184,32.7083)">
                <path d="M0.336,-0.448C0.336,-0.425 0.302,-0.409 0.233,-0.4C0.231,-0.382 0.23,-0.34 0.23,-0.275L0.23,-0.193C0.23,-0.176 0.233,-0.151 0.238,-0.119C0.244,-0.086 0.246,-0.062 0.246,-0.046C0.246,-0.033 0.24,-0.021 0.226,-0.011C0.213,0 0.2,0.005 0.186,0.005C0.165,0.005 0.148,-0.013 0.134,-0.049C0.123,-0.076 0.118,-0.103 0.118,-0.129L0.118,-0.394C0.079,-0.4 0.057,-0.403 0.051,-0.405C0.03,-0.412 0.019,-0.421 0.019,-0.434C0.019,-0.437 0.02,-0.441 0.021,-0.445C0.043,-0.476 0.067,-0.491 0.094,-0.491L0.101,-0.491C0.105,-0.49 0.107,-0.49 0.109,-0.49C0.126,-0.49 0.135,-0.51 0.134,-0.551L0.134,-0.643C0.129,-0.652 0.126,-0.66 0.126,-0.666C0.126,-0.677 0.133,-0.687 0.146,-0.696C0.159,-0.704 0.171,-0.709 0.183,-0.709C0.2,-0.709 0.217,-0.701 0.233,-0.684C0.248,-0.668 0.256,-0.651 0.256,-0.633C0.256,-0.613 0.253,-0.593 0.247,-0.573C0.241,-0.554 0.238,-0.533 0.239,-0.513L0.239,-0.508C0.304,-0.501 0.336,-0.481 0.336,-0.448Z" style="fill:rgb(90,0,126);fill-rule:nonzero;"/>
            </g>
        </g>
        <g transform="matrix(0.913034,0.407884,-0.407884,0.913034,15.2088,-5.05908)">
            <g transform="matrix(2.66667,0,0,2.66667,19.4683,33.1362)">
                <path d="M0.768,-0.569C0.768,-0.474 0.751,-0.366 0.718,-0.246C0.673,-0.089 0.618,-0.01 0.551,-0.01C0.493,-0.01 0.45,-0.047 0.424,-0.121C0.409,-0.163 0.397,-0.225 0.39,-0.306C0.37,-0.212 0.354,-0.149 0.343,-0.118C0.312,-0.032 0.274,0.011 0.23,0.011C0.198,0.011 0.168,-0.003 0.141,-0.03C0.106,-0.066 0.08,-0.178 0.063,-0.368C0.05,-0.497 0.044,-0.621 0.044,-0.741C0.044,-0.805 0.071,-0.838 0.126,-0.838C0.175,-0.838 0.2,-0.826 0.2,-0.804C0.2,-0.794 0.197,-0.783 0.191,-0.772C0.184,-0.761 0.178,-0.75 0.173,-0.739C0.162,-0.717 0.156,-0.672 0.156,-0.603C0.156,-0.283 0.181,-0.124 0.23,-0.124C0.247,-0.124 0.269,-0.186 0.294,-0.31C0.324,-0.457 0.339,-0.569 0.339,-0.648C0.339,-0.659 0.347,-0.671 0.363,-0.683C0.378,-0.695 0.393,-0.701 0.405,-0.701C0.43,-0.701 0.453,-0.693 0.473,-0.675C0.494,-0.658 0.505,-0.636 0.508,-0.611C0.491,-0.587 0.483,-0.543 0.483,-0.478C0.483,-0.243 0.505,-0.126 0.549,-0.126C0.591,-0.126 0.624,-0.193 0.648,-0.326C0.663,-0.419 0.671,-0.504 0.671,-0.581C0.671,-0.614 0.669,-0.638 0.666,-0.654C0.662,-0.67 0.653,-0.693 0.638,-0.725C0.624,-0.752 0.618,-0.772 0.618,-0.785C0.618,-0.805 0.622,-0.823 0.631,-0.84C0.643,-0.861 0.658,-0.871 0.676,-0.871C0.702,-0.871 0.725,-0.827 0.745,-0.739C0.76,-0.67 0.768,-0.613 0.768,-0.569Z" style="fill:rgb(90,0,126);fill-rule:nonzero;"/>
            </g>
        </g>
        <g transform="matrix(0.928911,0.370303,-0.370303,0.928911,14.1256,-5.5338)">
            <g transform="matrix(2.66667,0,0,2.66667,21.4756,34.0234)">
                <path d="M0.48,-0.213C0.48,-0.105 0.477,-0.029 0.47,0.015C0.466,0.041 0.448,0.054 0.418,0.054C0.371,0.054 0.35,0.03 0.355,-0.016C0.313,0.004 0.27,0.014 0.225,0.014C0.182,0.014 0.14,0.003 0.101,-0.019C0.055,-0.045 0.031,-0.078 0.031,-0.118C0.031,-0.157 0.058,-0.193 0.111,-0.228C0.16,-0.258 0.205,-0.274 0.248,-0.274L0.354,-0.274L0.354,-0.304C0.355,-0.391 0.329,-0.435 0.276,-0.435C0.21,-0.435 0.178,-0.404 0.178,-0.343C0.178,-0.322 0.166,-0.311 0.143,-0.311C0.128,-0.311 0.114,-0.318 0.098,-0.331C0.083,-0.344 0.075,-0.357 0.075,-0.371C0.075,-0.418 0.092,-0.456 0.125,-0.486C0.158,-0.516 0.198,-0.531 0.245,-0.531C0.402,-0.531 0.48,-0.425 0.48,-0.213ZM0.354,-0.168C0.354,-0.184 0.341,-0.193 0.316,-0.193C0.212,-0.193 0.16,-0.168 0.16,-0.119C0.16,-0.092 0.183,-0.079 0.229,-0.079C0.257,-0.079 0.284,-0.087 0.309,-0.103C0.339,-0.12 0.354,-0.142 0.354,-0.168Z" style="fill:rgb(90,0,126);fill-rule:nonzero;"/>
            </g>
        </g>
        <g transform="matrix(0.940174,0.340695,-0.340695,0.940174,13.1297,-5.69206)">
            <g transform="matrix(2.66667,0,0,2.66667,22.7723,34.5393)">
                <path d="M0.47,-0.48C0.462,-0.438 0.455,-0.397 0.449,-0.356C0.44,-0.308 0.436,-0.267 0.436,-0.233L0.436,0.108C0.436,0.169 0.419,0.216 0.383,0.249C0.348,0.281 0.299,0.298 0.238,0.298C0.198,0.298 0.153,0.287 0.105,0.266C0.047,0.242 0.019,0.213 0.019,0.179C0.019,0.167 0.024,0.157 0.033,0.149C0.043,0.141 0.053,0.138 0.065,0.138C0.073,0.138 0.09,0.149 0.119,0.171C0.147,0.194 0.18,0.205 0.216,0.205C0.263,0.205 0.294,0.188 0.31,0.154C0.322,0.13 0.328,0.093 0.328,0.041C0.328,0.022 0.327,0.006 0.326,-0.006C0.299,0.012 0.268,0.021 0.234,0.021C0.171,0.021 0.123,-0.001 0.089,-0.046C0.058,-0.087 0.043,-0.139 0.043,-0.203C0.043,-0.209 0.047,-0.314 0.055,-0.518C0.08,-0.528 0.1,-0.534 0.115,-0.534C0.132,-0.534 0.156,-0.524 0.189,-0.504C0.169,-0.454 0.159,-0.354 0.159,-0.204C0.159,-0.108 0.183,-0.06 0.231,-0.06C0.267,-0.06 0.295,-0.09 0.314,-0.15C0.328,-0.193 0.335,-0.238 0.335,-0.285L0.335,-0.438C0.335,-0.437 0.334,-0.45 0.331,-0.479C0.365,-0.495 0.391,-0.504 0.408,-0.504C0.425,-0.504 0.446,-0.496 0.47,-0.48Z" style="fill:rgb(90,0,126);fill-rule:nonzero;"/>
            </g>
        </g>
        <g transform="matrix(0.950848,0.309657,-0.309657,0.950848,12.0194,-5.72433)">
            <g transform="matrix(2.66667,0,0,2.66667,24.0414,34.999)">
                <path d="M0.478,-0.009C0.465,0.01 0.45,0.02 0.431,0.02C0.417,0.02 0.394,0.012 0.361,-0.005L0.361,-0.02C0.361,-0.038 0.362,-0.065 0.363,-0.101C0.364,-0.137 0.365,-0.163 0.365,-0.18C0.365,-0.358 0.338,-0.448 0.285,-0.448C0.27,-0.448 0.253,-0.436 0.234,-0.413C0.175,-0.341 0.145,-0.255 0.145,-0.154C0.145,-0.14 0.148,-0.119 0.153,-0.091C0.159,-0.063 0.161,-0.042 0.161,-0.028C0.161,-0.016 0.156,-0.006 0.145,0.001C0.134,0.009 0.123,0.013 0.11,0.013C0.06,0.013 0.035,-0.019 0.035,-0.083L0.035,-0.344C0.035,-0.35 0.036,-0.36 0.038,-0.373C0.039,-0.386 0.04,-0.396 0.04,-0.403C0.04,-0.413 0.039,-0.427 0.036,-0.446C0.033,-0.465 0.031,-0.48 0.031,-0.489C0.031,-0.502 0.039,-0.515 0.054,-0.527C0.07,-0.539 0.084,-0.545 0.096,-0.545C0.115,-0.545 0.133,-0.535 0.153,-0.514L0.149,-0.464C0.18,-0.513 0.218,-0.538 0.263,-0.538C0.292,-0.538 0.323,-0.528 0.355,-0.508C0.388,-0.488 0.411,-0.465 0.426,-0.44C0.46,-0.377 0.478,-0.293 0.478,-0.19L0.478,-0.009Z" style="fill:rgb(90,0,126);fill-rule:nonzero;"/>
            </g>
        </g>
        <g transform="matrix(0.960524,0.278199,-0.278199,0.960524,10.8589,-5.66103)">
            <g transform="matrix(2.66667,0,0,2.66667,25.3767,35.4319)">
                <path d="M0.435,-0.11C0.435,-0.068 0.407,-0.036 0.35,-0.013C0.306,0.006 0.26,0.015 0.211,0.015C0.083,0.015 0.019,-0.058 0.019,-0.204C0.019,-0.264 0.033,-0.33 0.063,-0.404C0.098,-0.494 0.142,-0.539 0.193,-0.539C0.238,-0.539 0.288,-0.518 0.341,-0.478C0.394,-0.437 0.42,-0.394 0.42,-0.35C0.42,-0.295 0.395,-0.251 0.346,-0.219C0.303,-0.19 0.251,-0.175 0.191,-0.175C0.18,-0.175 0.161,-0.182 0.135,-0.196C0.138,-0.117 0.162,-0.078 0.205,-0.078C0.242,-0.078 0.278,-0.088 0.313,-0.109C0.349,-0.13 0.371,-0.14 0.381,-0.14C0.417,-0.14 0.435,-0.13 0.435,-0.11ZM0.299,-0.346C0.299,-0.367 0.293,-0.387 0.281,-0.406C0.269,-0.424 0.253,-0.434 0.233,-0.434C0.205,-0.434 0.184,-0.422 0.169,-0.398C0.156,-0.377 0.15,-0.352 0.15,-0.324C0.15,-0.308 0.155,-0.295 0.166,-0.285C0.177,-0.275 0.191,-0.27 0.208,-0.27C0.268,-0.27 0.299,-0.295 0.299,-0.346Z" style="fill:rgb(90,0,126);fill-rule:nonzero;"/>
            </g>
        </g>
    </g>
</svg>
